<?xml version="1.0" encoding="UTF-8"?>
<svg id="Capa_1" data-name="Capa 1" xmlns="http://www.w3.org/2000/svg" viewBox="0 0 300 300">
  <defs>
    <style>
      .cls-1 {
        fill: #00d163;
      }

      .cls-1, .cls-2 {
        stroke-width: 0px;
      }

      .cls-2 {
        fill: #010101;
      }
    </style>
  </defs>
  <g>
    <path class="cls-2" d="M34.65,164.71h11.78v14.56h13.41v9.87h-13.41v21.08c0,4.92,2.33,7.38,6.99,7.38h6.42v9.96h-7.76c-5.37,0-9.61-1.49-12.74-4.46-3.13-2.97-4.69-7.1-4.69-12.41v-21.55h-9.48v-9.87h9.48v-14.56Z"/>
    <path class="cls-2" d="M93.28,189.14h-7.57c-6.96,0-10.44,5.21-10.44,15.62v22.8h-11.78v-48.28h11.78v8.53c1.21-3.07,2.79-5.25,4.74-6.56,1.95-1.31,4.49-1.96,7.62-1.96h5.65v9.87Z"/>
    <path class="cls-2" d="M95.77,158.58h12.65v13.12h-12.65v-13.12ZM96.25,227.55v-48.28h11.78v48.28h-11.78Z"/>
    <path class="cls-2" d="M115.41,247.09v-67.83h11.69v6.04c3.19-4.53,8.05-6.8,14.56-6.8,6.9,0,12.36,2.28,16.38,6.85,4.02,4.57,6.04,10.59,6.04,18.06s-2.12,13.41-6.37,18.01c-4.25,4.6-9.88,6.9-16.91,6.9-2.94,0-5.62-.54-8.05-1.63-2.43-1.08-4.31-2.55-5.65-4.41v24.81h-11.69ZM139.46,218.16c3.9,0,7.03-1.34,9.39-4.02,2.36-2.68,3.54-6.26,3.54-10.73s-1.18-8.05-3.54-10.73c-2.36-2.68-5.49-4.02-9.39-4.02s-7.14,1.34-9.53,4.02c-2.39,2.68-3.59,6.26-3.59,10.73s1.2,8.05,3.59,10.73c2.4,2.68,5.57,4.02,9.53,4.02Z"/>
    <path class="cls-2" d="M168.87,227.55v-68.98h11.69v68.98h-11.69Z"/>
    <path class="cls-2" d="M232.76,179.27v48.28h-11.78v-7.47c-2.81,5.49-7.82,8.24-15.04,8.24-5.36,0-9.69-1.77-12.98-5.32-3.29-3.54-4.93-8.16-4.93-13.84v-29.89h11.69v27.4c0,3.32.94,6.02,2.83,8.1,1.88,2.08,4.29,3.11,7.23,3.11,3.32,0,6.02-1.15,8.1-3.45,2.07-2.3,3.11-5.24,3.11-8.81v-26.34h11.78Z"/>
    <path class="cls-2" d="M256.91,228.32c-5.88,0-10.62-1.52-14.23-4.55-3.61-3.03-5.54-7.14-5.8-12.31h10.73c.25,2.3,1.21,4.12,2.87,5.46,1.66,1.34,3.8,2.01,6.42,2.01,2.23,0,4.07-.49,5.51-1.49,1.44-.99,2.16-2.22,2.16-3.69,0-1.66-.66-2.95-1.96-3.88-1.31-.93-2.94-1.52-4.89-1.77-1.95-.25-4.07-.65-6.37-1.2-2.3-.54-4.42-1.2-6.37-1.96-1.95-.77-3.58-2.17-4.89-4.21-1.31-2.04-1.96-4.66-1.96-7.86,0-4.22,1.64-7.66,4.93-10.35,3.29-2.68,7.42-4.02,12.41-4.02,5.62,0,10.22,1.42,13.8,4.26,3.58,2.84,5.49,6.63,5.75,11.35h-10.73c-.32-2.11-1.31-3.77-2.97-4.98-1.66-1.21-3.51-1.82-5.56-1.82s-3.8.46-5.08,1.39c-1.28.93-1.92,2.19-1.92,3.78,0,1.41.49,2.49,1.49,3.26.99.77,2.27,1.31,3.83,1.63,1.56.32,3.3.57,5.22.77,1.92.19,3.83.54,5.75,1.05,1.92.51,3.66,1.25,5.22,2.2,1.56.96,2.84,2.44,3.83,4.45.99,2.01,1.48,4.49,1.48,7.42,0,4.54-1.71,8.18-5.12,10.92-3.42,2.75-7.94,4.12-13.56,4.12Z"/>
  </g>
  <g>
    <rect class="cls-1" x="167.63" y="113.11" width="27.87" height="27.87" rx="13.93" ry="13.93"/>
    <rect class="cls-1" x="103.5" y="48.88" width="27.87" height="27.87" rx="13.93" ry="13.93"/>
    <rect class="cls-1" x="103.5" y="48.98" width="27.87" height="27.87" rx="13.93" ry="13.93"/>
    <rect class="cls-1" x="135.56" y="48.93" width="27.87" height="27.86" rx="13.93" ry="13.93"/>
    <rect class="cls-1" x="167.63" y="48.88" width="27.87" height="27.87" rx="13.93" ry="13.93"/>
    <rect class="cls-1" x="103.53" y="81.14" width="27.87" height="27.87" rx="13.93" ry="13.93"/>
    <rect class="cls-1" x="135.6" y="81.09" width="27.87" height="27.86" rx="13.93" ry="13.93"/>
    <rect class="cls-1" x="167.67" y="81.04" width="27.87" height="27.87" rx="13.93" ry="13.93"/>
    <rect class="cls-1" x="103.5" y="113.31" width="27.87" height="27.87" rx="13.93" ry="13.93"/>
    <rect class="cls-1" x="135.56" y="113.26" width="27.87" height="27.86" rx="13.93" ry="13.93"/>
    <rect class="cls-1" x="167.63" y="113.21" width="27.87" height="27.87" rx="13.93" ry="13.93"/>
  </g>
</svg>
