<svg width="288" height="77" viewBox="0 0 288 77" fill="none" xmlns="http://www.w3.org/2000/svg">
<path d="M82.98 6.89999H93V19.28H104.4V27.67H93V45.59C93 49.77 94.98 51.86 98.95 51.86H104.41V60.33H97.81C93.25 60.33 89.64 59.07 86.98 56.54C84.32 54.01 82.99 50.5 82.99 45.99V27.66H74.93V19.27H82.99V6.88999L82.98 6.89999Z" fill="#010101"/>
<path d="M132.83 27.67H126.4C120.48 27.67 117.52 32.1 117.52 40.95V60.33H107.5V19.28H117.52V26.53C118.55 23.92 119.9 22.07 121.55 20.95C123.21 19.84 125.36 19.28 128.02 19.28H132.83V27.67Z" fill="#010101"/>
<path d="M134.95 1.67999H145.7V12.84H134.95V1.67999ZM135.35 60.33V19.28H145.37V60.33H135.35Z" fill="#010101"/>
<path d="M151.64 76.94V19.28H161.58V24.41C164.29 20.55 168.42 18.63 173.96 18.63C179.82 18.63 184.47 20.57 187.89 24.45C191.31 28.33 193.02 33.45 193.02 39.8C193.02 46.15 191.21 51.2 187.6 55.11C183.99 59.02 179.2 60.97 173.22 60.97C170.72 60.97 168.44 60.51 166.38 59.59C164.32 58.67 162.71 57.42 161.58 55.84V76.94H151.64ZM172.08 52.34C175.39 52.34 178.05 51.2 180.06 48.92C182.07 46.64 183.07 43.6 183.07 39.8C183.07 36 182.07 32.96 180.06 30.68C178.05 28.4 175.39 27.26 172.08 27.26C168.77 27.26 166.01 28.4 163.98 30.68C161.94 32.96 160.93 36 160.93 39.8C160.93 43.6 161.95 46.64 163.98 48.92C166.02 51.2 168.72 52.34 172.08 52.34Z" fill="#010101"/>
<path d="M197.09 60.33V1.68999H207.03V60.33H197.09Z" fill="#010101"/>
<path d="M251.41 19.28V60.33H241.39V53.98C239 58.65 234.74 60.98 228.6 60.98C224.04 60.98 220.36 59.47 217.56 56.46C214.76 53.45 213.36 49.52 213.36 44.69V19.28H223.3V42.57C223.3 45.39 224.1 47.69 225.7 49.45C227.3 51.21 229.35 52.1 231.85 52.1C234.67 52.1 236.97 51.12 238.73 49.17C240.49 47.21 241.38 44.72 241.38 41.68V19.28H251.4H251.41Z" fill="#010101"/>
<path d="M271.93 60.98C266.93 60.98 262.9 59.69 259.84 57.11C256.77 54.53 255.13 51.04 254.91 46.64H264.03C264.25 48.6 265.06 50.14 266.47 51.28C267.88 52.42 269.7 52.99 271.93 52.99C273.83 52.99 275.39 52.57 276.61 51.73C277.83 50.89 278.44 49.85 278.44 48.6C278.44 47.19 277.88 46.09 276.77 45.3C275.66 44.51 274.27 44.01 272.62 43.79C270.96 43.57 269.16 43.23 267.2 42.77C265.24 42.31 263.44 41.75 261.78 41.1C260.12 40.45 258.74 39.25 257.63 37.52C256.52 35.78 255.96 33.56 255.96 30.84C255.96 27.26 257.36 24.32 260.16 22.05C262.96 19.77 266.47 18.63 270.71 18.63C275.49 18.63 279.4 19.84 282.44 22.25C285.48 24.67 287.11 27.88 287.33 31.9H278.21C277.94 30.11 277.1 28.7 275.68 27.67C274.27 26.64 272.69 26.12 270.96 26.12C269.23 26.12 267.73 26.51 266.64 27.3C265.55 28.09 265.01 29.16 265.01 30.52C265.01 31.72 265.43 32.64 266.27 33.29C267.11 33.94 268.2 34.4 269.53 34.67C270.86 34.94 272.34 35.16 273.97 35.32C275.6 35.48 277.23 35.78 278.86 36.22C280.49 36.65 281.97 37.28 283.3 38.09C284.63 38.9 285.72 40.17 286.56 41.88C287.4 43.59 287.82 45.69 287.82 48.19C287.82 52.05 286.37 55.14 283.46 57.48C280.55 59.82 276.71 60.98 271.94 60.98H271.93Z" fill="#010101"/>
<path d="M61.12 51.935C61.12 46.8236 56.9764 42.68 51.865 42.68C46.7536 42.68 42.61 46.8236 42.61 51.935C42.61 57.0464 46.7536 61.19 51.865 61.19C56.9764 61.19 61.12 57.0464 61.12 51.935Z" fill="#00d163"/>
<path d="M18.51 9.255C18.51 4.14361 14.3664 0 9.255 0C4.14361 0 0 4.14361 0 9.255C0 14.3664 4.14361 18.51 9.255 18.51C14.3664 18.51 18.51 14.3664 18.51 9.255Z" fill="#00d163"/>
<path d="M18.51 9.325C18.51 4.21361 14.3664 0.0699997 9.255 0.0699997C4.14361 0.0699997 0 4.21361 0 9.325C0 14.4364 4.14361 18.58 9.255 18.58C14.3664 18.58 18.51 14.4364 18.51 9.325Z" fill="#00d163"/>
<path d="M39.81 9.295C39.81 4.1836 35.6664 0.0400009 30.555 0.0400009C25.4436 0.0400009 21.3 4.1836 21.3 9.295C21.3 14.4064 25.4436 18.55 30.555 18.55C35.6664 18.55 39.81 14.4064 39.81 9.295Z" fill="#00d163"/>
<path d="M61.12 9.255C61.12 4.14361 56.9764 0 51.865 0C46.7536 0 42.61 4.14361 42.61 9.255C42.61 14.3664 46.7536 18.51 51.865 18.51C56.9764 18.51 61.12 14.3664 61.12 9.255Z" fill="#00d163"/>
<path d="M18.54 30.695C18.54 25.5836 14.3964 21.44 9.285 21.44C4.1736 21.44 0.0299988 25.5836 0.0299988 30.695C0.0299988 35.8064 4.1736 39.95 9.285 39.95C14.3964 39.95 18.54 35.8064 18.54 30.695Z" fill="#00d163"/>
<path d="M39.84 30.655C39.84 25.5436 35.6964 21.4 30.585 21.4C25.4736 21.4 21.33 25.5436 21.33 30.655C21.33 35.7664 25.4736 39.91 30.585 39.91C35.6964 39.91 39.84 35.7664 39.84 30.655Z" fill="#00d163"/>
<path d="M61.14 30.625C61.14 25.5136 56.9964 21.37 51.885 21.37C46.7736 21.37 42.63 25.5136 42.63 30.625C42.63 35.7364 46.7736 39.88 51.885 39.88C56.9964 39.88 61.14 35.7364 61.14 30.625Z" fill="#00d163"/>
<path d="M18.51 52.055C18.51 46.9436 14.3664 42.8 9.255 42.8C4.14361 42.8 0 46.9436 0 52.055C0 57.1664 4.14361 61.31 9.255 61.31C14.3664 61.31 18.51 57.1664 18.51 52.055Z" fill="#00d163"/>
<path d="M39.81 52.025C39.81 46.9136 35.6664 42.77 30.555 42.77C25.4436 42.77 21.3 46.9136 21.3 52.025C21.3 57.1364 25.4436 61.28 30.555 61.28C35.6664 61.28 39.81 57.1364 39.81 52.025Z" fill="#00d163"/>
<path d="M61.12 51.995C61.12 46.8836 56.9764 42.74 51.865 42.74C46.7536 42.74 42.61 46.8836 42.61 51.995C42.61 57.1064 46.7536 61.25 51.865 61.25C56.9764 61.25 61.12 57.1064 61.12 51.995Z" fill="#00d163"/>
</svg>
